<svg width="25" height="25" viewBox="0 0 25 25" fill="none" xmlns="http://www.w3.org/2000/svg">
<path d="M8.65405 8.65366C11.0437 8.65366 12.981 6.71645 12.981 4.32677C12.981 1.93709 11.0437 -0.00012207 8.65405 -0.00012207C6.26437 -0.00012207 4.32715 1.93709 4.32715 4.32677C4.32715 6.71645 6.26437 8.65366 8.65405 8.65366Z" fill="#7A7E86"/>
<path d="M10.5769 11.75C9.30884 11.4572 7.99098 11.4549 6.72187 11.7432C5.45276 12.0315 4.26524 12.6029 3.24808 13.4148C2.23093 14.2267 1.41046 15.258 0.848005 16.4316C0.285555 17.6052 -0.00432151 18.8908 4.86891e-05 20.1922C4.86891e-05 21.7854 1.29153 23.0768 2.88464 23.0768H7.69232" fill="#7A7E86"/>
<path d="M24.0385 16.3462H14.4232C13.8922 16.3462 13.4617 16.7767 13.4617 17.3077V24.0384C13.4617 24.5695 13.8922 25 14.4232 25H24.0385C24.5696 25 25.0001 24.5695 25.0001 24.0384V17.3077C25.0001 16.7767 24.5696 16.3462 24.0385 16.3462Z" fill="#7A7E86"/>
<path d="M15.3846 16.3461V14.423C15.3846 13.403 15.7899 12.4247 16.5112 11.7034C17.2324 10.9821 18.2107 10.5769 19.2308 10.5769C20.2508 10.5769 21.2291 10.9821 21.9504 11.7034C22.6717 12.4247 23.0769 13.403 23.0769 14.423V16.3461" fill="#7A7E86"/>
</svg>
