<svg width="25" height="25" viewBox="0 0 25 25" fill="none" xmlns="http://www.w3.org/2000/svg">
<path fill-rule="evenodd" clip-rule="evenodd" d="M11.9469 16.9594C12.0195 17.0321 12.1057 17.0899 12.2006 17.1292C12.2955 17.1686 12.3972 17.1889 12.5 17.1889C12.6028 17.1889 12.7045 17.1686 12.7994 17.1292C12.8943 17.0899 12.9806 17.0321 13.0531 16.9594L16.1781 13.8344C16.2508 13.7617 16.3084 13.6755 16.3477 13.5806C16.387 13.4857 16.4072 13.384 16.4072 13.2812C16.4072 13.1785 16.387 13.0768 16.3477 12.9819C16.3084 12.887 16.2508 12.8008 16.1781 12.7281C16.1055 12.6555 16.0193 12.5979 15.9244 12.5586C15.8295 12.5192 15.7277 12.499 15.625 12.499C15.5223 12.499 15.4206 12.5192 15.3257 12.5586C15.2308 12.5979 15.1445 12.6555 15.0719 12.7281L13.2813 14.5203V8.59375C13.2813 8.38655 13.1989 8.18784 13.0524 8.04132C12.9059 7.89481 12.7072 7.8125 12.5 7.8125C12.2928 7.8125 12.0941 7.89481 11.9476 8.04132C11.8011 8.18784 11.7188 8.38655 11.7188 8.59375V14.5203L9.92814 12.7281C9.78144 12.5814 9.58247 12.499 9.37501 12.499C9.16755 12.499 8.96858 12.5814 8.82189 12.7281C8.67519 12.8748 8.59277 13.0738 8.59277 13.2812C8.59277 13.4887 8.67519 13.6877 8.82189 13.8344L11.9469 16.9594V16.9594Z" fill="#A5AAB5"/>
<path d="M6.88438 5.22188C8.44606 3.87521 10.4379 3.13147 12.5 3.125C16.7031 3.125 20.1922 6.25 20.5719 10.2797C23.0594 10.6312 25 12.7141 25 15.2703C25 18.0766 22.6594 20.3125 19.8234 20.3125H5.90781C2.66875 20.3125 0 17.7594 0 14.5594C0 11.8047 1.97812 9.52344 4.59687 8.94531C4.82031 7.59687 5.6875 6.25313 6.88438 5.22188V5.22188ZM7.90469 6.40469C6.72187 7.425 6.10312 8.65469 6.10312 9.61719V10.3172L5.40781 10.3937C3.225 10.6328 1.5625 12.425 1.5625 14.5594C1.5625 16.8516 3.48437 18.75 5.90781 18.75H19.8234C21.8438 18.75 23.4375 17.1687 23.4375 15.2703C23.4375 13.3703 21.8438 11.7891 19.8234 11.7891H19.0422V11.0078C19.0438 7.53906 16.1375 4.6875 12.5 4.6875C10.8123 4.69424 9.18256 5.3038 7.90469 6.40625V6.40469Z" fill="#A5AAB5"/>
</svg>
