<svg width="25" height="25" viewBox="0 0 25 25" fill="none" xmlns="http://www.w3.org/2000/svg">
<g clip-path="url(#clip0_196_353)">
<path d="M12.5001 7.4281C11.8341 7.4281 11.1745 7.55929 10.5592 7.81417C9.94383 8.06906 9.38471 8.44265 8.91374 8.91362C8.44277 9.38459 8.06918 9.9437 7.8143 10.5591C7.55941 11.1744 7.42822 11.8339 7.42822 12.5C7.42822 13.166 7.55941 13.8255 7.8143 14.4409C8.06918 15.0562 8.44277 15.6154 8.91374 16.0863C9.38471 16.5573 9.94383 16.9309 10.5592 17.1858C11.1745 17.4407 11.8341 17.5718 12.5001 17.5718C13.8452 17.5718 15.1353 17.0375 16.0865 16.0863C17.0376 15.1352 17.572 13.8451 17.572 12.5C17.572 11.1548 17.0376 9.86478 16.0865 8.91362C15.1353 7.96246 13.8452 7.4281 12.5001 7.4281V7.4281ZM8.99072 12.5C8.99072 11.5692 9.36046 10.6766 10.0186 10.0185C10.6767 9.36034 11.5694 8.9906 12.5001 8.9906C13.4308 8.9906 14.3235 9.36034 14.9816 10.0185C15.6397 10.6766 16.0095 11.5692 16.0095 12.5C16.0095 13.4307 15.6397 14.3233 14.9816 14.9815C14.3235 15.6396 13.4308 16.0094 12.5001 16.0094C11.5694 16.0094 10.6767 15.6396 10.0186 14.9815C9.36046 14.3233 8.99072 13.4307 8.99072 12.5Z" fill="#A5AAB5"/>
<path d="M15.3062 2.09839C14.4828 -0.698486 10.5171 -0.698486 9.6937 2.09839L9.54683 2.59683C9.48932 2.79206 9.38885 2.97196 9.25279 3.12332C9.11673 3.27469 8.94851 3.39369 8.76048 3.47159C8.57246 3.5495 8.36938 3.58435 8.16613 3.57357C7.96288 3.5628 7.76463 3.50668 7.58589 3.40933L7.12964 3.15933C4.56714 1.76558 1.76558 4.5687 3.16089 7.12964L3.40933 7.58589C3.50668 7.76463 3.5628 7.96288 3.57357 8.16613C3.58435 8.36937 3.5495 8.57245 3.4716 8.76048C3.39369 8.94851 3.27469 9.11673 3.12332 9.25279C2.97196 9.38885 2.79206 9.48932 2.59683 9.54683L2.09839 9.6937C-0.698486 10.5171 -0.698486 14.4828 2.09839 15.3062L2.59683 15.4531C2.79206 15.5106 2.97196 15.611 3.12332 15.7471C3.27469 15.8832 3.39369 16.0514 3.4716 16.2394C3.5495 16.4274 3.58435 16.6305 3.57357 16.8338C3.5628 17.037 3.50668 17.2353 3.40933 17.414L3.15933 17.8703C1.76558 20.4328 4.56714 23.2359 7.12964 21.839L7.58589 21.5906C7.76463 21.4932 7.96288 21.4371 8.16613 21.4263C8.36938 21.4156 8.57246 21.4504 8.76048 21.5283C8.94851 21.6062 9.11673 21.7252 9.25279 21.8766C9.38885 22.0279 9.48932 22.2078 9.54683 22.4031L9.6937 22.9015C10.5171 25.6984 14.4828 25.6984 15.3062 22.9015L15.4531 22.4031C15.5106 22.2078 15.611 22.0279 15.7471 21.8766C15.8832 21.7252 16.0514 21.6062 16.2394 21.5283C16.4274 21.4504 16.6305 21.4156 16.8338 21.4263C17.037 21.4371 17.2353 21.4932 17.414 21.5906L17.8703 21.8406C20.4328 23.2359 23.2359 20.4312 21.839 17.8703L21.5906 17.414C21.4932 17.2353 21.4371 17.037 21.4263 16.8338C21.4156 16.6305 21.4504 16.4274 21.5283 16.2394C21.6062 16.0514 21.7252 15.8832 21.8766 15.7471C22.0279 15.611 22.2078 15.5106 22.4031 15.4531L22.9015 15.3062C25.6984 14.4828 25.6984 10.5171 22.9015 9.6937L22.4031 9.54683C22.2078 9.48932 22.0279 9.38885 21.8766 9.25279C21.7252 9.11673 21.6062 8.94851 21.5283 8.76048C21.4504 8.57245 21.4156 8.36937 21.4263 8.16613C21.4371 7.96288 21.4932 7.76463 21.5906 7.58589L21.8406 7.12964C23.2359 4.56714 20.4312 1.76558 17.8703 3.16089L17.414 3.40933C17.2353 3.50668 17.037 3.5628 16.8338 3.57357C16.6305 3.58435 16.4274 3.5495 16.2394 3.47159C16.0514 3.39369 15.8832 3.27469 15.7471 3.12332C15.611 2.97196 15.5106 2.79206 15.4531 2.59683L15.3062 2.09839V2.09839ZM11.1921 2.54058C11.5765 1.23589 13.4234 1.23589 13.8078 2.54058L13.9546 3.03901C14.0781 3.4579 14.2938 3.84384 14.5858 4.16854C14.8778 4.49325 15.2388 4.74849 15.6423 4.91554C16.0457 5.0826 16.4815 5.15724 16.9176 5.134C17.3537 5.11075 17.779 4.99021 18.1625 4.7812L18.6171 4.5312C19.8109 3.88276 21.1171 5.18745 20.4671 6.38276L20.2187 6.83901C20.01 7.22249 19.8898 7.64781 19.8668 8.08379C19.8438 8.51977 19.9186 8.95537 20.0858 9.35868C20.253 9.76198 20.5083 10.1228 20.833 10.4146C21.1578 10.7064 21.5436 10.9219 21.9625 11.0453L22.4593 11.1921C23.764 11.5765 23.764 13.4234 22.4593 13.8078L21.9609 13.9546C21.542 14.0781 21.1561 14.2938 20.8314 14.5858C20.5067 14.8778 20.2514 15.2388 20.0844 15.6423C19.9173 16.0457 19.8427 16.4815 19.8659 16.9176C19.8892 17.3537 20.0097 17.779 20.2187 18.1624L20.4687 18.6171C21.1171 19.8109 19.8125 21.1171 18.6171 20.4671L18.1625 20.2187C17.7789 20.0097 17.3535 19.8892 16.9173 19.8661C16.4811 19.8429 16.0453 19.9177 15.6418 20.0849C15.2383 20.2521 14.8773 20.5076 14.5854 20.8324C14.2934 21.1573 14.0779 21.5434 13.9546 21.9624L13.8078 22.4593C13.4234 23.764 11.5765 23.764 11.1921 22.4593L11.0453 21.9609C10.9217 21.5422 10.7061 21.1565 10.4142 20.8319C10.1223 20.5074 9.7615 20.2523 9.35822 20.0852C8.95493 19.9182 8.51939 19.8435 8.0835 19.8666C7.6476 19.8897 7.22239 20.01 6.83901 20.2187L6.38276 20.4687C5.18901 21.1171 3.88276 19.8125 4.53276 18.6171L4.7812 18.1624C4.9905 17.779 5.11128 17.3535 5.13468 16.9172C5.15808 16.4809 5.0835 16.045 4.91643 15.6413C4.74935 15.2376 4.49401 14.8764 4.16914 14.5843C3.84427 14.2922 3.45812 14.0765 3.03901 13.9531L2.54058 13.8062C1.23589 13.4218 1.23589 11.575 2.54058 11.1906L3.03901 11.0437C3.45746 10.9201 3.84298 10.7045 4.16736 10.4127C4.49174 10.1209 4.74677 9.76031 4.91378 9.35722C5.0808 8.95414 5.15557 8.51882 5.13263 8.08311C5.10969 7.6474 4.98962 7.22233 4.7812 6.83901L4.5312 6.38276C3.88276 5.18901 5.18745 3.88276 6.38276 4.53276L6.83901 4.7812C7.22239 4.98991 7.6476 5.11022 8.0835 5.13331C8.51939 5.15641 8.95493 5.0817 9.35822 4.91466C9.7615 4.74763 10.1223 4.49249 10.4142 4.16795C10.7061 3.84341 10.9217 3.45768 11.0453 3.03901L11.1921 2.54058V2.54058Z" fill="#A5AAB5"/>
</g>
<defs>
<clipPath id="clip0_196_353">
<rect width="25" height="25" fill="white"/>
</clipPath>
</defs>
</svg>
