<svg width="25" height="25" viewBox="0 0 25 25" fill="none" xmlns="http://www.w3.org/2000/svg">
<g clip-path="url(#clip0_102_258)">
<path d="M12.5001 7.42813C11.8341 7.42813 11.1745 7.55932 10.5592 7.8142C9.94383 8.06909 9.38471 8.44268 8.91374 8.91365C8.44277 9.38462 8.06918 9.94373 7.8143 10.5591C7.55941 11.1744 7.42822 11.834 7.42822 12.5C7.42822 13.1661 7.55941 13.8256 7.8143 14.4409C8.06918 15.0563 8.44277 15.6154 8.91374 16.0864C9.38471 16.5573 9.94383 16.9309 10.5592 17.1858C11.1745 17.4407 11.8341 17.5719 12.5001 17.5719C13.8452 17.5719 15.1353 17.0375 16.0865 16.0864C17.0376 15.1352 17.572 13.8451 17.572 12.5C17.572 11.1549 17.0376 9.86481 16.0865 8.91365C15.1353 7.96249 13.8452 7.42813 12.5001 7.42813ZM8.99072 12.5C8.99072 11.5693 9.36046 10.6766 10.0186 10.0185C10.6767 9.36037 11.5694 8.99063 12.5001 8.99063C13.4308 8.99063 14.3235 9.36037 14.9816 10.0185C15.6397 10.6766 16.0095 11.5693 16.0095 12.5C16.0095 13.4307 15.6397 14.3234 14.9816 14.9815C14.3235 15.6396 13.4308 16.0094 12.5001 16.0094C11.5694 16.0094 10.6767 15.6396 10.0186 14.9815C9.36046 14.3234 8.99072 13.4307 8.99072 12.5Z" fill="white"/>
<path d="M15.3062 2.09845C14.4828 -0.698425 10.5171 -0.698425 9.6937 2.09845L9.54683 2.59689C9.48932 2.79212 9.38885 2.97202 9.25279 3.12338C9.11673 3.27475 8.94851 3.39375 8.76048 3.47166C8.57246 3.54956 8.36938 3.58441 8.16613 3.57363C7.96288 3.56286 7.76463 3.50674 7.58589 3.40939L7.12964 3.15939C4.56714 1.76564 1.76558 4.56876 3.16089 7.1297L3.40933 7.58595C3.50668 7.76469 3.5628 7.96294 3.57357 8.16619C3.58435 8.36944 3.5495 8.57252 3.4716 8.76054C3.39369 8.94857 3.27469 9.11679 3.12332 9.25285C2.97196 9.38891 2.79206 9.48938 2.59683 9.54689L2.09839 9.69376C-0.698486 10.5172 -0.698486 14.4828 2.09839 15.3063L2.59683 15.4531C2.79206 15.5106 2.97196 15.6111 3.12332 15.7472C3.27469 15.8832 3.39369 16.0514 3.4716 16.2395C3.5495 16.4275 3.58435 16.6306 3.57357 16.8338C3.5628 17.0371 3.50668 17.2353 3.40933 17.4141L3.15933 17.8703C1.76558 20.4328 4.56714 23.2359 7.12964 21.8391L7.58589 21.5906C7.76463 21.4933 7.96288 21.4372 8.16613 21.4264C8.36938 21.4156 8.57246 21.4505 8.76048 21.5284C8.94851 21.6063 9.11673 21.7253 9.25279 21.8766C9.38885 22.028 9.48932 22.2079 9.54683 22.4031L9.6937 22.9016C10.5171 25.6984 14.4828 25.6984 15.3062 22.9016L15.4531 22.4031C15.5106 22.2079 15.611 22.028 15.7471 21.8766C15.8832 21.7253 16.0514 21.6063 16.2394 21.5284C16.4274 21.4505 16.6305 21.4156 16.8338 21.4264C17.037 21.4372 17.2353 21.4933 17.414 21.5906L17.8703 21.8406C20.4328 23.2359 23.2359 20.4313 21.839 17.8703L21.5906 17.4141C21.4932 17.2353 21.4371 17.0371 21.4263 16.8338C21.4156 16.6306 21.4504 16.4275 21.5283 16.2395C21.6062 16.0514 21.7252 15.8832 21.8766 15.7472C22.0279 15.6111 22.2078 15.5106 22.4031 15.4531L22.9015 15.3063C25.6984 14.4828 25.6984 10.5172 22.9015 9.69376L22.4031 9.54689C22.2078 9.48938 22.0279 9.38891 21.8766 9.25285C21.7252 9.11679 21.6062 8.94857 21.5283 8.76054C21.4504 8.57252 21.4156 8.36944 21.4263 8.16619C21.4371 7.96294 21.4932 7.76469 21.5906 7.58595L21.8406 7.1297C23.2359 4.5672 20.4312 1.76564 17.8703 3.16095L17.414 3.40939C17.2353 3.50674 17.037 3.56286 16.8338 3.57363C16.6305 3.58441 16.4274 3.54956 16.2394 3.47166C16.0514 3.39375 15.8832 3.27475 15.7471 3.12338C15.611 2.97202 15.5106 2.79212 15.4531 2.59689L15.3062 2.09845ZM11.1921 2.54064C11.5765 1.23595 13.4234 1.23595 13.8078 2.54064L13.9546 3.03907C14.0781 3.45796 14.2938 3.8439 14.5858 4.1686C14.8778 4.49331 15.2388 4.74855 15.6423 4.91561C16.0457 5.08266 16.4815 5.1573 16.9176 5.13406C17.3537 5.11081 17.779 4.99027 18.1625 4.78126L18.6171 4.53126C19.8109 3.88282 21.1171 5.18751 20.4671 6.38282L20.2187 6.83907C20.01 7.22255 19.8898 7.64787 19.8668 8.08385C19.8438 8.51983 19.9186 8.95543 20.0858 9.35874C20.253 9.76204 20.5083 10.1228 20.833 10.4147C21.1578 10.7065 21.5436 10.922 21.9625 11.0453L22.4593 11.1922C23.764 11.5766 23.764 13.4234 22.4593 13.8078L21.9609 13.9547C21.542 14.0782 21.1561 14.2938 20.8314 14.5858C20.5067 14.8778 20.2514 15.2388 20.0844 15.6423C19.9173 16.0458 19.8427 16.4816 19.8659 16.9176C19.8892 17.3537 20.0097 17.7791 20.2187 18.1625L20.4687 18.6172C21.1171 19.8109 19.8125 21.1172 18.6171 20.4672L18.1625 20.2188C17.7789 20.0098 17.3535 19.8893 16.9173 19.8661C16.4811 19.843 16.0453 19.9178 15.6418 20.085C15.2383 20.2522 14.8773 20.5076 14.5854 20.8325C14.2934 21.1574 14.0779 21.5435 13.9546 21.9625L13.8078 22.4594C13.4234 23.7641 11.5765 23.7641 11.1921 22.4594L11.0453 21.9609C10.9217 21.5423 10.7061 21.1566 10.4142 20.832C10.1223 20.5075 9.7615 20.2523 9.35822 20.0853C8.95493 19.9183 8.51939 19.8436 8.0835 19.8666C7.6476 19.8897 7.22239 20.01 6.83901 20.2188L6.38276 20.4688C5.18901 21.1172 3.88276 19.8125 4.53276 18.6172L4.7812 18.1625C4.9905 17.779 5.11128 17.3535 5.13468 16.9173C5.15808 16.481 5.0835 16.045 4.91643 15.6413C4.74935 15.2376 4.49401 14.8765 4.16914 14.5844C3.84427 14.2922 3.45812 14.0766 3.03901 13.9531L2.54058 13.8063C1.23589 13.4219 1.23589 11.575 2.54058 11.1906L3.03901 11.0438C3.45746 10.9202 3.84298 10.7046 4.16736 10.4128C4.49174 10.121 4.74677 9.76037 4.91378 9.35729C5.0808 8.9542 5.15557 8.51888 5.13263 8.08317C5.10969 7.64746 4.98962 7.22239 4.7812 6.83907L4.5312 6.38282C3.88276 5.18907 5.18745 3.88282 6.38276 4.53282L6.83901 4.78126C7.22239 4.98997 7.6476 5.11028 8.0835 5.13338C8.51939 5.15647 8.95493 5.08176 9.35822 4.91473C9.7615 4.74769 10.1223 4.49256 10.4142 4.16801C10.7061 3.84347 10.9217 3.45774 11.0453 3.03907L11.1921 2.54064Z" fill="white"/>
</g>
<defs>
<clipPath id="clip0_102_258">
<rect width="25" height="25" fill="white"/>
</clipPath>
</defs>
</svg>
