<svg width="36" height="41" viewBox="0 0 36 41" fill="none" xmlns="http://www.w3.org/2000/svg">
<path d="Mnan nanL19.0187 39.5454C18.4003 39.8129 17.7152 39.8129 17.0968 39.5454Lnan nanLnan nanL17.0968 39.5454C12.2674 37.4225 8.12056 33.7175 5.1971 28.9136C2.27364 24.1097 0.709194 18.4297 0.707764 12.6144V3.84682C0.707764 3.0532 0.988985 2.29209 1.48956 1.73092C1.99014 1.16975 2.66907 0.854485 3.37699 0.854485H32.7385C33.4465 0.854485 34.1254 1.16975 34.626 1.73092C35.1265 2.29209 35.4078 3.0532 35.4078 3.84682V12.5844C35.4117 18.4049 33.8498 24.0914 30.926 28.9013C28.0021 33.7111 23.8524 37.4206 19.0187 39.5454Lnan nanLnan nanZ" stroke="#000001" stroke-linecap="round" stroke-linejoin="round"/>
<path d="M18.0576 23.2969C21.743 23.2969 24.7307 19.9476 24.7307 15.8161C24.7307 11.6845 21.743 8.33525 18.0576 8.33525C14.3722 8.33525 11.3845 11.6845 11.3845 15.8161C11.3845 19.9476 14.3722 23.2969 18.0576 23.2969Z" stroke="#000001" stroke-linecap="round" stroke-linejoin="round"/>
<path d="M8.04785 32.8426C9.30028 31.2506 10.8406 29.9755 12.5664 29.1022C14.2922 28.2288 16.164 27.7771 18.0575 27.7771C19.951 27.7771 21.8228 28.2288 23.5486 29.1022C25.2744 29.9755 26.8147 31.2506 28.0671 32.8426" stroke="#000001" stroke-linecap="round" stroke-linejoin="round"/>
</svg>
