<svg width="37" height="41" viewBox="0 0 37 41" fill="none" xmlns="http://www.w3.org/2000/svg">
<path d="M13.0119 14.4654C16.3288 14.4654 19.0176 11.4511 19.0176 7.73266C19.0176 4.01426 16.3288 0.999908 13.0119 0.999908C9.69498 0.999908 7.0061 4.01426 7.0061 7.73266C7.0061 11.4511 9.69498 14.4654 13.0119 14.4654Z" stroke="#000001" stroke-linecap="round" stroke-linejoin="round"/>
<path d="M15.6808 19.2831C13.9207 18.8276 12.0915 18.824 10.33 19.2726C8.56847 19.7212 6.92018 20.6103 5.50836 21.8736C4.09654 23.1369 2.95772 24.7417 2.17704 26.5678C1.39635 28.394 0.994002 30.3944 1.00007 32.4195V32.4195C1.00007 34.8984 3.00964 36.908 5.48857 36.908H11.677" stroke="#000001" stroke-linecap="round" stroke-linejoin="round"/>
<path d="M34.3656 26.435H21.0194C20.2823 26.435 19.6848 27.1049 19.6848 27.9312V38.4044C19.6848 39.2307 20.2823 39.9005 21.0194 39.9005H34.3656C35.1027 39.9005 35.7002 39.2307 35.7002 38.4044V27.9312C35.7002 27.1049 35.1027 26.435 34.3656 26.435Z" stroke="#000001" stroke-linecap="round" stroke-linejoin="round"/>
<path d="M22.354 26.435V23.4427C22.354 21.8555 22.9164 20.3332 23.9176 19.2109C24.9188 18.0886 26.2766 17.458 27.6925 17.458C29.1083 17.458 30.4662 18.0886 31.4673 19.2109C32.4685 20.3332 33.0309 21.8555 33.0309 23.4427V26.435" stroke="#000001" stroke-linecap="round" stroke-linejoin="round"/>
</svg>
