<svg width="232" height="60" viewBox="0 0 232 60" fill="none" xmlns="http://www.w3.org/2000/svg">
<rect width="232" height="60" rx="18" fill="#1294F2"/>
<path d="Mnan nanL33.1923 44.871C32.7468 45.043 32.2532 45.043 31.8077 44.871Lnan nanL31.8077 44.871C28.3283 43.5064 25.3406 41.1248 23.2344 38.0368C21.1282 34.9488 20.001 31.2976 20 27.5594V21.9235C20 21.4134 20.2026 20.9241 20.5633 20.5634C20.9239 20.2027 21.413 20 21.9231 20H43.0769C43.587 20 44.0761 20.2027 44.4367 20.5634C44.7974 20.9241 45 21.4134 45 21.9235V27.5402C45.0028 31.2817 43.8775 34.937 41.771 38.0289C39.6645 41.1207 36.6748 43.5052 33.1923 44.871Lnan nanZ" fill="white"/>
<path d="M23.2344 38.0368C25.3406 41.1248 28.3283 43.5064 31.8077 44.871Lnan nanLnan nanL31.8077 44.871C32.2532 45.043 32.7468 45.043 33.1923 44.871Lnan nanLnan nanL33.1923 44.871C36.6748 43.5052 39.6645 41.1207 41.771 38.0288C43.8775 34.937 45.0028 31.2817 45 27.5402V21.9235C45 21.4134 44.7974 20.9241 44.4367 20.5634C44.0761 20.2027 43.5869 20 43.0769 20H21.9231C21.413 20 20.9239 20.2027 20.5633 20.5634C20.2026 20.9241 20 21.4134 20 21.9235V27.5594C20.001 31.2976 21.1282 34.9488 23.2344 38.0368Z" stroke="white" stroke-linecap="round" stroke-linejoin="round"/>
<path d="M32.4998 34.4263C35.155 34.4263 37.3075 32.2733 37.3075 29.6175C37.3075 26.9617 35.155 24.8087 32.4998 24.8087C29.8446 24.8087 27.6921 26.9617 27.6921 29.6175C27.6921 32.2733 29.8446 34.4263 32.4998 34.4263Z" fill="white" stroke="white" stroke-linecap="round" stroke-linejoin="round"/>
<path d="M25.2883 40.5624C26.1907 39.539 27.3004 38.7194 28.5437 38.158C29.7871 37.5966 31.1357 37.3063 32.4999 37.3063C33.8641 37.3063 35.2126 37.5966 36.456 38.158C37.6994 38.7194 38.8091 39.539 39.7114 40.5624" fill="white"/>
<path d="M25.2883 40.5624C26.1907 39.539 27.3004 38.7194 28.5437 38.158C29.7871 37.5966 31.1357 37.3063 32.4999 37.3063C33.8641 37.3063 35.2126 37.5966 36.456 38.158C37.6994 38.7194 38.8091 39.539 39.7114 40.5624" stroke="white" stroke-linecap="round" stroke-linejoin="round"/>
</svg>
