<svg width="27" height="25" viewBox="0 0 27 25" fill="none" xmlns="http://www.w3.org/2000/svg">
<g clip-path="url(#clip0_196_346)">
<path d="M8.04287 21.375H1.78742C1.30519 21.375 1.03693 21.2608 0.888708 21.1209C0.745929 20.9862 0.631836 20.7491 0.631836 20.3125C0.631836 19.6593 0.996868 18.2157 2.15755 16.9377C3.29809 15.6819 5.22977 14.5625 8.40976 14.5625H8.41042C8.41187 14.5625 8.41331 14.5625 8.41476 14.5625L8.01308 15.1321C5.27788 15.2195 3.64699 16.2129 2.67585 17.2822C1.60775 18.456 1.28742 19.7783 1.28742 20.3125V20.8125H1.78742H6.75418H7.25001L7.25416 20.3167C7.26657 18.8347 7.71212 17.384 8.54236 16.1237L8.77731 16.1212V15.6266V15.625V14.5675C9.02993 14.5746 9.28226 14.5895 9.53391 14.6121L9.53556 14.6122C9.86686 14.6408 10.196 14.6863 10.5215 14.7482C10.2775 14.9714 10.0495 15.2044 9.83833 15.4454L8.04287 21.375ZM8.04287 21.375C7.94856 21.028 7.90338 20.6691 7.90976 20.3078C7.91099 18.5987 8.58689 16.8734 9.8382 15.4456L8.04287 21.375ZM11.2209 20.3042L11.2193 20.7103L11.6164 20.7952C11.6417 20.8006 11.6672 20.805 11.6928 20.8083L11.7574 20.3125V20.8125H24.9292H24.9566L24.9839 20.8095C24.9997 20.8078 25.0155 20.8056 25.0313 20.8031L25.0493 20.8002L25.0672 20.796L25.0804 20.7929L25.4688 20.7013L25.4656 20.3022C25.4613 19.7667 25.1408 18.4505 24.0774 17.2825C23.0606 16.1617 21.3168 15.125 18.3433 15.125C15.3688 15.125 13.6245 16.1596 12.6089 17.2827C11.5464 18.4498 11.2231 19.7648 11.2209 20.3042ZM26.1212 20.3125C26.1212 20.6095 26.0444 20.7996 25.9541 20.9273C25.8606 21.0597 25.73 21.1567 25.58 21.2275C25.4287 21.2989 25.271 21.3371 25.1466 21.3567C25.0856 21.3662 25.0358 21.3709 25.0031 21.3731C24.9868 21.3742 24.975 21.3747 24.9685 21.3749L24.9641 21.375L24.9631 21.375H11.7234L11.7225 21.375L11.7181 21.3749C11.7115 21.3747 11.6997 21.3742 11.6834 21.3731C11.6507 21.3709 11.6009 21.3662 11.5399 21.3567C11.4155 21.3371 11.2578 21.2989 11.1065 21.2275C10.9565 21.1567 10.8259 21.0597 10.7324 20.9273C10.6422 20.7996 10.5653 20.6095 10.5653 20.3125C10.5653 19.6593 10.9304 18.2157 12.0911 16.9377C13.2316 15.6819 15.1633 14.5625 18.3433 14.5625C21.5233 14.5625 23.4549 15.6819 24.5955 16.9377C25.7562 18.2157 26.1212 19.6593 26.1212 20.3125ZM18.3433 11.4375C19.345 11.4375 20.3111 11.0622 21.0278 10.3858C21.7454 9.70855 22.1544 8.78355 22.1544 7.8125C22.1544 6.84145 21.7454 5.91645 21.0278 5.23916C20.3111 4.5628 19.345 4.1875 18.3433 4.1875C17.3415 4.1875 16.3754 4.5628 15.6587 5.23916C14.9411 5.91645 14.5321 6.84145 14.5321 7.8125C14.5321 8.78355 14.9411 9.70855 15.6587 10.3858C16.3754 11.0622 17.3415 11.4375 18.3433 11.4375ZM22.81 7.8125C22.81 8.35826 22.6962 8.89943 22.4741 9.40539C22.252 9.91142 21.9256 10.3732 21.5121 10.7634C21.0985 11.1538 20.606 11.4648 20.0619 11.6775C19.5178 11.8902 18.9337 12 18.3433 12C17.7528 12 17.1687 11.8902 16.6246 11.6775C16.0806 11.4648 15.588 11.1538 15.1744 10.7634C14.7609 10.3732 14.4345 9.91142 14.2124 9.40539C13.9904 8.89943 13.8765 8.35826 13.8765 7.8125C13.8765 6.71155 14.3397 5.6494 15.1744 4.86157C16.0102 4.0728 17.1496 3.625 18.3433 3.625C19.537 3.625 20.6764 4.0728 21.5121 4.86157C22.3469 5.6494 22.81 6.71155 22.81 7.8125ZM3.11521 8.59375C3.11521 7.4928 3.57835 6.43065 4.41313 5.64282C5.24888 4.85405 6.38828 4.40625 7.58197 4.40625C8.77566 4.40625 9.91506 4.85405 10.7508 5.64282C11.5856 6.43065 12.0487 7.4928 12.0487 8.59375C12.0487 9.6947 11.5856 10.7568 10.7508 11.5447C9.91506 12.3334 8.77566 12.7812 7.58197 12.7812C6.38828 12.7812 5.24888 12.3334 4.41313 11.5447C3.57835 10.7568 3.11521 9.6947 3.11521 8.59375ZM7.58197 4.96875C6.58022 4.96875 5.61409 5.34405 4.89743 6.02041C4.17979 6.6977 3.7708 7.6227 3.7708 8.59375C3.7708 9.5648 4.17979 10.4898 4.89743 11.1671C5.61409 11.8435 6.58022 12.2188 7.58197 12.2188C8.58372 12.2188 9.54984 11.8435 10.2665 11.1671C10.9841 10.4898 11.3931 9.5648 11.3931 8.59375C11.3931 7.6227 10.9841 6.6977 10.2665 6.02041C9.54984 5.34405 8.58372 4.96875 7.58197 4.96875Z" stroke="white"/>
</g>
<defs>
<clipPath id="clip0_196_346">
<rect width="26.4894" height="25" fill="white" transform="translate(0.131836)"/>
</clipPath>
</defs>
</svg>
