<svg width="9" height="11" viewBox="0 0 9 11" fill="none" xmlns="http://www.w3.org/2000/svg">
<path fill-rule="evenodd" clip-rule="evenodd" d="M3.94688 9.95938C4.01946 10.0321 4.10567 10.0899 4.20058 10.1292C4.2955 10.1686 4.39725 10.1889 4.50001 10.1889C4.60277 10.1889 4.70452 10.1686 4.79944 10.1292C4.89435 10.0899 4.98056 10.0321 5.05313 9.95938L8.17813 6.83438C8.25077 6.76174 8.30839 6.6755 8.3477 6.5806C8.38701 6.48569 8.40724 6.38397 8.40724 6.28125C8.40724 6.17853 8.38701 6.07681 8.3477 5.9819C8.30839 5.887 8.25077 5.80076 8.17813 5.72812C8.10549 5.65549 8.01926 5.59787 7.92436 5.55856C7.82945 5.51925 7.72773 5.49901 7.62501 5.49901C7.52228 5.49901 7.42056 5.51925 7.32566 5.55856C7.23075 5.59787 7.14452 5.65549 7.07188 5.72812L5.28126 7.52031V1.59375C5.28126 1.38655 5.19895 1.18784 5.05244 1.04132C4.90592 0.89481 4.70721 0.8125 4.50001 0.8125C4.29281 0.8125 4.09409 0.89481 3.94758 1.04132C3.80107 1.18784 3.71876 1.38655 3.71876 1.59375V7.52031L1.92814 5.72812C1.78144 5.58143 1.58247 5.49901 1.37501 5.49901C1.16755 5.49901 0.968583 5.58143 0.821885 5.72812C0.675188 5.87482 0.592773 6.07379 0.592773 6.28125C0.592773 6.48871 0.675188 6.68768 0.821885 6.83438L3.94688 9.95938V9.95938Z" fill="#A5AAB5"/>
</svg>
