<svg width="25" height="18" viewBox="0 0 25 18" fill="none" xmlns="http://www.w3.org/2000/svg">
<path d="M6.88438 2.22188C8.44606 0.875211 10.4379 0.131466 12.5 0.125C16.7031 0.125 20.1922 3.25 20.5719 7.27969C23.0594 7.63125 25 9.71406 25 12.2703C25 15.0766 22.6594 17.3125 19.8234 17.3125H5.90781C2.66875 17.3125 0 14.7594 0 11.5594C0 8.80469 1.97812 6.52344 4.59687 5.94531C4.82031 4.59687 5.6875 3.25313 6.88438 2.22188V2.22188ZM7.90469 3.40469C6.72187 4.425 6.10312 5.65469 6.10312 6.61719V7.31719L5.40781 7.39375C3.225 7.63281 1.5625 9.425 1.5625 11.5594C1.5625 13.8516 3.48437 15.75 5.90781 15.75H19.8234C21.8438 15.75 23.4375 14.1687 23.4375 12.2703C23.4375 10.3703 21.8438 8.78906 19.8234 8.78906H19.0422V8.00781C19.0438 4.53906 16.1375 1.6875 12.5 1.6875C10.8123 1.69424 9.18256 2.3038 7.90469 3.40625V3.40469Z" fill="#A5AAB5"/>
</svg>
